<svg xmlns="http://www.w3.org/2000/svg" xmlns:xlink="http://www.w3.org/1999/xlink" width="252.62" height="177.118" viewBox="0 0 252.62 177.118"><defs><clipPath id="a"><path d="M104.747-132.571a81.747,81.747,0,0,0,81.747-81.747,81.747,81.747,0,0,0-81.747-81.747A81.747,81.747,0,0,0,23-214.318,81.747,81.747,0,0,0,104.747-132.571Z" transform="translate(-23 296.065)" fill="none"/></clipPath><clipPath id="b"><path d="M179.686-158.622c-18,27.747-13.068,63.037-13.068,63.037s34.115-9.7,52.115-37.443S231.8-196.065,231.8-196.065,197.686-186.369,179.686-158.622Z" transform="translate(-166 196.065)" fill="none"/></clipPath><clipPath id="c"><path d="M108.633-90.1s-.441-.07-1.252-.233c-.647-.131-1.538-.317-2.626-.574-9.725-2.282-35.58-10-52.484-30.279-21.157-25.4-20.266-60.879-20.266-60.879s32.349,5.232,53.665,28.039q1.386,1.47,2.7,3.047c18.409,22.1,20.125,51.83,20.261,59.181C108.647-90.7,108.633-90.1,108.633-90.1Z" transform="translate(-32 182.065)" fill="none"/></clipPath><clipPath id="d"><path d="M149.275-69.588c-.477.576-.9,1.068-1.243,1.471-.767.876-1.2,1.335-1.2,1.335s-.528-.665-1.416-1.912c-4.875-6.813-20.558-31.037-19.348-59.019q.1-2.2.323-4.353,1.381,1.476,2.688,3.06C147.429-106.819,149.14-76.968,149.275-69.588Z" transform="translate(-126 132.065)" fill="none"/></clipPath><clipPath id="e"><path d="M179.052-167.163c-1.435,33.077-26.092,58.88-26.092,58.88s-22.329-27.825-20.894-60.9,26.092-58.88,26.092-58.88S180.487-200.24,179.052-167.163Z" transform="translate(-132 228.065)" fill="none"/></clipPath><clipPath id="f"><path d="M126.31-12.17c69.759,0,126.31-3.558,126.31-7.948s-56.551-7.948-126.31-7.948S0-24.507,0-20.117,56.551-12.17,126.31-12.17Z" transform="translate(0 28.065)" fill="none"/></clipPath><clipPath id="g"><path d="M37-43.275v-31.79" transform="translate(-37 75.065)" fill="none"/></clipPath><clipPath id="h"><path d="M33.541-73.982a4.541,4.541,0,0,0,4.541-4.541,4.541,4.541,0,0,0-4.541-4.541A4.541,4.541,0,0,0,29-78.524,4.541,4.541,0,0,0,33.541-73.982Z" transform="translate(-29 83.065)" fill="none"/></clipPath><clipPath id="i"><path d="M26.624-49.576S25.991-63.559,13-61.934" transform="translate(-13 62.065)" fill="none"/></clipPath><clipPath id="j"><path d="M228-177.506v-88.559" transform="translate(-228 266.065)" fill="none"/></clipPath><clipPath id="k"><path d="M223.245-263.576a6.245,6.245,0,0,0,6.245-6.245,6.245,6.245,0,0,0-6.245-6.245A6.245,6.245,0,0,0,217-269.821,6.245,6.245,0,0,0,223.245-263.576Z" transform="translate(-217 276.065)" fill="none"/></clipPath><clipPath id="l"><path d="M213.734-234.035S212.862-253.1,195-250.886" transform="translate(-195 251.065)" fill="none"/></clipPath><clipPath id="m"><path d="M328.333-196.065l-5.323,10.011s-38.49,7.355-33.576,18.8,10.441,28.194,13.308,27.786,18.631-9.4,19.245-12.054-14.127-15.119-14.127-15.119l24.363-4.7S335.7-155,331.2-143.763s-7.166,41.679-4.095,42.087,10.851,2.86,14.331.613,5.118-51.485,5.118-51.485,7.37-32.28,2.866-35.958S328.333-196.065,328.333-196.065Z" transform="translate(-289 196.065)" fill="none"/></clipPath><clipPath id="n"><path d="M364.753-38.784S360-41.3,359-39.286c0,0,.751,6.027-2.253,6.781s-4.256,6.027,0,6.53,7.009-1,8.511-1,0-5.274,0-5.274Z" transform="translate(-354 40.065)" fill="none"/></clipPath><clipPath id="o"><path d="M326.5-110.591s-5.182-1.454-5.739.73c0,0,2,5.753-.778,7.129s-2.9,6.815,1.374,6.4S328-98.8,329.469-99.12s-1.11-5.173-1.11-5.173Z" transform="translate(-318 111.065)" fill="none"/></clipPath><clipPath id="p"><path d="M377.36-259.442s.2,7.624-1.213,8.242,7.886,4.327,7.886,4.327l1.618-2.885s-1.82-10.3-1.415-11.127S377.36-259.442,377.36-259.442Z" transform="translate(-376 261.065)" fill="none"/></clipPath><clipPath id="q"><path d="M374.489-274.087a12.489,12.489,0,0,0,12.489-12.489,12.489,12.489,0,0,0-12.489-12.489A12.489,12.489,0,0,0,362-286.576,12.489,12.489,0,0,0,374.489-274.087Z" transform="translate(-362 299.065)" fill="none"/></clipPath><clipPath id="r"><path d="M382.109-296.847a5.109,5.109,0,0,0,5.109-5.109,5.109,5.109,0,0,0-5.109-5.109A5.109,5.109,0,0,0,377-301.956,5.109,5.109,0,0,0,382.109-296.847Z" transform="translate(-377 307.065)" fill="none"/></clipPath><clipPath id="s"><path d="M373.071-306.956a5.122,5.122,0,0,1,4.606-5.082,5.206,5.206,0,0,0-.536-.028A5.125,5.125,0,0,0,372-306.956a5.125,5.125,0,0,0,5.141,5.109,5.206,5.206,0,0,0,.536-.028,5.122,5.122,0,0,1-4.606-5.082Z" transform="translate(-372 312.065)" fill="none"/></clipPath><clipPath id="t"><path d="M376.515-264.035a8.515,8.515,0,0,0,8.515-8.515,8.515,8.515,0,0,0-8.515-8.515A8.515,8.515,0,0,0,368-272.55,8.515,8.515,0,0,0,376.515-264.035Z" transform="translate(-368 281.065)" fill="none"/></clipPath><clipPath id="u"><path d="M375.121-246.606s-7.354,2.237-11.031,0-12.461,4.27-13.891,7.117,5.311,5.694,5.311,5.694-1.925,5.5-1.532,8.236c.409,2.847-.306,8.642-.306,8.642s18.047,11.836,22.062,6.507c.613-.813,5.72-19.929,5.72-19.929l7.15-7.117s-4.494-6.507-7.15-7.117A57.878,57.878,0,0,1,375.121-246.606Z" transform="translate(-350 247.065)" fill="none"/></clipPath><clipPath id="v"><path d="M298.318-173.065s-13.768,7.288-10.933,9.37,14.375-8.121,14.375-8.121Z" transform="translate(-287 173.065)" fill="none"/></clipPath><clipPath id="w"><path d="M397.336-184.261s-6.242-4.381-7.247-2.19,6.835,7.122,8.485,5.193S397.336-184.261,397.336-184.261Z" transform="translate(-390 187.065)" fill="none"/></clipPath><clipPath id="x"><path d="M407.113-235.065l3.641,2.264s12.338,17.29,8.09,21.2-15.169,11.732-15.169,11.732-3.641-5.352-2.427-5.557,10.922-8.439,10.922-8.439l-8.495-16.055Z" transform="translate(-401 235.065)" fill="none"/></clipPath><clipPath id="y"><path d="M332.919-236.065l-2.649,1.028L323.341-222.5,305-200.092s2.445,3.906,4.483,3.083S326.8-215.1,326.8-215.1l9.985-15.623Z" transform="translate(-305 236.065)" fill="none"/></clipPath><clipPath id="z"><path d="M377.8-282.847c4.86,0,8.8-2.287,8.8-5.109s-3.94-5.109-8.8-5.109-8.8,2.287-8.8,5.109S372.94-282.847,377.8-282.847Z" transform="translate(-369 293.065)" fill="none"/></clipPath><clipPath id="aa"><path d="M282-89.065h40.306v40.306H282Z" transform="translate(-282 89.065)" fill="none"/></clipPath><clipPath id="ab"><path d="M320.52-65.977c0,5.695-2.668,9.284-6.888,9.284-2.16,0-3.805-1.153-4.09-2.867h-.308A4.5,4.5,0,0,1,304.8-56.8c-3.751,0-6.258-3-6.258-7.478,0-4.3,2.521-7.286,6.2-7.286a4.471,4.471,0,0,1,4.205,2.513h.307v-2.137h3.067v9.937a1.778,1.778,0,0,0,1.914,1.983c2.129,0,3.482-2.582,3.482-6.594,0-6.4-4.8-10.683-11.885-10.683-7.011,0-12.008,5.111-12.008,12.343,0,7.393,4.943,12.112,12.638,12.112a23.34,23.34,0,0,0,4.182-.354,1.216,1.216,0,0,1,1.418.936,1.215,1.215,0,0,1-.9,1.439,21.5,21.5,0,0,1-4.82.523C296.989-49.554,291-55.333,291-64.3c0-8.754,6.111-14.763,15.021-14.763C314.585-79.065,320.52-73.724,320.52-65.977Zm-18.665,1.768c0,2.844,1.338,4.565,3.513,4.565,2.291,0,3.736-1.768,3.736-4.565s-1.445-4.527-3.7-4.527C303.169-68.736,301.855-67.061,301.855-64.209Z" transform="translate(-291 79.065)" fill="none"/></clipPath></defs><g transform="translate(0 312.065)"><g transform="translate(13.057 -302.982)" clip-path="url(#a)"><path d="M18-301.065H187.17v169.17H18Z" transform="translate(-20.838 298.227)" fill="#f1f1f1"/></g><g transform="translate(94.236 -246.214)" clip-path="url(#b)"><path d="M161-201.065h72.1V-94.908H161Z" transform="translate(-163.838 198.227)" fill="#515151"/></g><g transform="translate(18.166 -238.266)" clip-path="url(#c)"><path d="M27-187.065h82.314v97.642H27Z" transform="translate(-29.838 184.227)" fill="#f6840a"/></g><g transform="translate(28.952 -246.214)"><path d="M52.733,37.443C70.733,65.19,65.8,100.48,65.8,100.48s-34.115-9.7-52.115-37.443S.618,0,.618,0,34.734,9.7,52.733,37.443Z" transform="translate(0)" fill="none" stroke="#515151" stroke-width="2"/></g><g transform="translate(71.528 -209.882)" clip-path="url(#d)"><path d="M121-137.065h28.952V-66.1H121Z" transform="translate(-123.838 134.227)" fill="rgba(0,0,0,0.1)"/></g><g transform="translate(74.935 -264.379)" clip-path="url(#e)"><path d="M127-233.065h52.795v125.459H127Z" transform="translate(-129.838 230.227)" fill="#f6840a"/></g><g transform="translate(95.939 -263.244)"><path d="M0,117.511,5.109,0" fill="none" stroke="#515151" stroke-width="2"/></g><g transform="translate(0 -150.842)" clip-path="url(#f)"><path d="M-5-33.065H253.3v21.572H-5Z" transform="translate(2.162 30.227)" fill="#515151"/></g><g transform="translate(21.004 -177.523)" clip-path="url(#g)"><path d="M32-80.065H42V-42.6H32Z" transform="translate(-37 77.227)" fill="#515151"/></g><g transform="translate(21.004 -177.523)"><path d="M.205,31.79V0" transform="translate(-0.205)" fill="none" stroke="#515151" stroke-width="2"/></g><g transform="translate(16.463 -182.065)" clip-path="url(#h)"><path d="M24-88.065H38.76v14.76H24Z" transform="translate(-26.838 85.227)" fill="#515151"/></g><g transform="translate(7.38 -170.144)" clip-path="url(#i)"><path d="M8-67.065H27.3V-48.9H8Z" transform="translate(-10.838 64.227)" fill="#515151"/></g><g transform="translate(129.432 -285.952)" clip-path="url(#j)"><path d="M223-271.065h10v94.236H223Z" transform="translate(-228 268.227)" fill="#3e3d55"/></g><g transform="translate(129.432 -285.952)"><path d="M.205,88.559V0" transform="translate(-0.205)" fill="none" stroke="#3e3d55" stroke-width="2"/></g><g transform="translate(123.188 -291.628)" clip-path="url(#k)"><path d="M212-281.065h18.166V-262.9H212Z" transform="translate(-214.838 278.227)" fill="#3e3d55"/></g><g transform="translate(110.699 -277.436)" clip-path="url(#l)"><path d="M190-256.065h24.411v22.707H190Z" transform="translate(-192.838 253.227)" fill="#3e3d55"/></g><g transform="translate(164.061 -246.214)" clip-path="url(#m)"><path d="M284-201.065h67.555V-99.449H284Z" transform="translate(-286.838 198.227)" fill="#ffb457"/></g><g transform="translate(200.961 -157.654)" clip-path="url(#n)"><path d="M349-45.065h17.6V-25.2H349Z" transform="translate(-351.838 42.227)" fill="#2e2e41"/></g><g transform="translate(180.524 -197.96)" clip-path="url(#o)"><path d="M313-116.065h17.6v20.437H313Z" transform="translate(-315.838 113.227)" fill="#2e2e41"/></g><g transform="translate(213.45 -283.113)" clip-path="url(#p)"><path d="M371-266.065h15.328V-246.2H371Z" transform="translate(-373.838 263.227)" fill="#ffdea4"/></g><g transform="translate(205.502 -304.685)" clip-path="url(#q)"><path d="M357-304.065h30.655v30.655H357Z" transform="translate(-359.838 301.227)" fill="#5c0a0a"/></g><g transform="translate(214.018 -309.227)" clip-path="url(#r)"><path d="M372-312.065h15.9v15.9H372Z" transform="translate(-374.838 309.227)" fill="#5c0a0a"/></g><g transform="translate(211.179 -312.065)" clip-path="url(#s)"><path d="M367-317.065h11.354v15.9H367Z" transform="translate(-369.838 314.227)" fill="#5c0a0a"/></g><g transform="translate(208.908 -294.467)" clip-path="url(#t)"><path d="M363-286.065h22.707v22.707H363Z" transform="translate(-365.838 283.227)" fill="#ffdea4"/></g><g transform="translate(198.69 -275.165)" clip-path="url(#u)"><path d="M345-252.065h44.28v43.712H345Z" transform="translate(-347.838 249.227)" fill="#d0cde0"/></g><g transform="translate(162.926 -233.157)" clip-path="url(#v)"><path d="M282-178.065h20.437v15.328H282Z" transform="translate(-284.838 175.227)" fill="#ffdea4"/></g><g transform="translate(221.398 -241.104)" clip-path="url(#w)"><path d="M385-192.065h14.76v11.921H385Z" transform="translate(-387.838 189.227)" fill="#ffdea4"/></g><g transform="translate(227.642 -268.353)" clip-path="url(#x)"><path d="M396-240.065h24.411v40.873H396Z" transform="translate(-398.838 237.227)" fill="#d0cde0"/></g><g transform="translate(173.144 -268.921)" clip-path="url(#y)"><path d="M300-241.065h37.467v44.847H300Z" transform="translate(-302.838 238.227)" fill="#d0cde0"/></g><g transform="translate(209.476 -301.279)" clip-path="url(#z)"><path d="M364-298.065h23.275v15.9H364Z" transform="translate(-366.838 295.227)" fill="#5c0a0a"/></g><g transform="translate(160.087 -185.471)" clip-path="url(#aa)"><path d="M277-94.065h45.983v45.983H277Z" transform="translate(-279.838 91.227)" fill="#f6840a"/></g><g transform="translate(165.197 -179.794)" clip-path="url(#ab)"><path d="M286-84.065h35.2v35.2H286Z" transform="translate(-288.838 81.227)" fill="#fff"/></g></g></svg>