<svg xmlns="http://www.w3.org/2000/svg" width="27.141" height="27.14" viewBox="0 0 27.141 27.14"><g transform="translate(0 0)"><g transform="translate(0 0)"><path d="M27.136,10.38a.428.428,0,0,0-.019-.092.452.452,0,0,0-.026-.078.406.406,0,0,0-.045-.069.427.427,0,0,0-.06-.07c-.007-.006-.01-.015-.018-.021l-4.35-3.379v-3.5a1.357,1.357,0,0,0-1.357-1.357h-4.9L14.4.288a1.341,1.341,0,0,0-1.65,0L10.783,1.812H5.88A1.357,1.357,0,0,0,4.523,3.169v3.5L.174,10.05c-.008.006-.011.015-.018.021a.424.424,0,0,0-.06.07.4.4,0,0,0-.045.069.446.446,0,0,0-.026.078.429.429,0,0,0-.019.09c0,.009-.005.018-.005.027V25.788a1.342,1.342,0,0,0,.266.8s0,.009.006.013.01.008.014.013a1.351,1.351,0,0,0,1.069.533H25.785a1.351,1.351,0,0,0,1.073-.536s.009-.006.012-.01,0-.009.006-.013a1.342,1.342,0,0,0,.266-.8V10.407C27.142,10.4,27.137,10.39,27.136,10.38ZM13.3,1a.434.434,0,0,1,.54,0l1.044.81H12.259ZM1.471,26.24,13.3,17.052a.434.434,0,0,1,.54,0L25.671,26.24Zm24.766-.705L14.4,16.338a1.342,1.342,0,0,0-1.65,0L.9,25.535V11.1l7.413,5.756a.453.453,0,0,0,.555-.715L1.341,10.29,4.523,7.816v3.5a.452.452,0,1,0,.9,0V3.169a.452.452,0,0,1,.452-.452H21.261a.452.452,0,0,1,.452.452v8.143a.452.452,0,1,0,.9,0v-3.5L25.8,10.29l-7.544,5.858a.452.452,0,1,0,.555.715L26.237,11.1V25.535Z" transform="translate(-0.001 -0.004)"/><path d="M164.431,75.475V73.665A5.428,5.428,0,1,0,159,79.094a.452.452,0,1,0,0-.9,4.524,4.524,0,1,1,4.524-4.524v1.809a.9.9,0,1,1-1.809,0V73.665a.452.452,0,0,0-.9,0A1.809,1.809,0,1,1,159,71.856a.452.452,0,1,0,0-.9,2.714,2.714,0,1,0,1.829,4.714,1.8,1.8,0,0,0,3.6-.191Z" transform="translate(-145.433 -64.62)"/></g></g></svg>