<svg xmlns="http://www.w3.org/2000/svg" width="26.675" height="26.675" viewBox="0 0 26.675 26.675"><path d="M3.907,26.675h8.7V17.193H9.482V14.067h3.126V10.159a3.912,3.912,0,0,1,3.907-3.907h3.907V9.378H17.3a1.565,1.565,0,0,0-1.563,1.563v3.126h4.548l-.521,3.126H15.734v9.482h7.033a3.912,3.912,0,0,0,3.907-3.907V3.907A3.912,3.912,0,0,0,22.767,0H3.907A3.912,3.912,0,0,0,0,3.907v18.86A3.912,3.912,0,0,0,3.907,26.675ZM1.563,3.907A2.347,2.347,0,0,1,3.907,1.563h18.86a2.347,2.347,0,0,1,2.344,2.344v18.86a2.347,2.347,0,0,1-2.344,2.344H17.3V18.756h3.788L22.127,12.5H17.3V10.941h4.689V4.689h-5.47a5.476,5.476,0,0,0-5.47,5.47V12.5H7.919v6.252h3.126v6.356H3.907a2.347,2.347,0,0,1-2.344-2.344Zm0,0"/></svg>