<svg xmlns="http://www.w3.org/2000/svg" width="26.675" height="26.675" viewBox="0 0 26.675 26.675"><path d="M19.454,0H7.221A7.229,7.229,0,0,0,0,7.221V19.454a7.229,7.229,0,0,0,7.221,7.22H19.454a7.229,7.229,0,0,0,7.22-7.22V7.221A7.229,7.229,0,0,0,19.454,0Zm5.657,19.454a5.663,5.663,0,0,1-5.657,5.657H7.221a5.663,5.663,0,0,1-5.657-5.657V7.221A5.663,5.663,0,0,1,7.221,1.564H19.454a5.663,5.663,0,0,1,5.657,5.657Zm0,0"/><path d="M123.3,116a7.294,7.294,0,1,0,7.294,7.294A7.3,7.3,0,0,0,123.3,116Zm0,13.024a5.73,5.73,0,1,1,5.73-5.73A5.736,5.736,0,0,1,123.3,129.027Zm0,0" transform="translate(-109.96 -109.96)"/><path d="M360.132,66.285a2.155,2.155,0,1,0,2.155,2.155A2.158,2.158,0,0,0,360.132,66.285Zm0,2.747a.591.591,0,1,1,.592-.591A.592.592,0,0,1,360.132,69.032Zm0,0" transform="translate(-339.326 -62.832)"/></svg>