<svg xmlns="http://www.w3.org/2000/svg" width="32.039" height="40.049" viewBox="0 0 32.039 40.049"><g transform="translate(-0.25)"><path d="M588.65,363.484l-.9.984,4.093,3.753a4.683,4.683,0,0,1,1.513,3.445v16.34h1.335v-16.34a6.023,6.023,0,0,0-1.948-4.429Zm0,0" transform="translate(-562.403 -347.957)"/><path d="M20.942,0H3.587A3.342,3.342,0,0,0,.25,3.337V36.711a3.342,3.342,0,0,0,3.337,3.337H20.274V38.854a15.175,15.175,0,0,1,2.558-8.448.667.667,0,0,0-.083-.842l-4.672-4.672a2.165,2.165,0,0,1,.159-3.2,2.248,2.248,0,0,1,2.988.23l6.589,6.589.944-.944-4.477-4.478V3.337A3.342,3.342,0,0,0,20.942,0Zm2,21.75-.777-.777a3.593,3.593,0,0,0-4.782-.316,3.5,3.5,0,0,0-.253,5.179l4.292,4.292a16.5,16.5,0,0,0-2.48,8.586H3.587a2,2,0,0,1-2-2v-2H18.272V33.374H1.585V5.34H22.944ZM22.944,4H1.585V3.337a2,2,0,0,1,2-2H20.942a2,2,0,0,1,2,2Zm0,0"/><path d="M64.085,161.59h2.67a1.335,1.335,0,0,0,1.335-1.335v-2.67a1.335,1.335,0,0,0-1.335-1.335h-2.67a1.335,1.335,0,0,0-1.335,1.335v2.67A1.335,1.335,0,0,0,64.085,161.59Zm0-4h2.67v2.67h-2.67Zm0,0" transform="translate(-59.83 -149.575)"/><path d="M220.335,161.59H223a1.335,1.335,0,0,0,1.335-1.335v-2.67A1.335,1.335,0,0,0,223,156.25h-2.67A1.335,1.335,0,0,0,219,157.585v2.67A1.335,1.335,0,0,0,220.335,161.59Zm0-4H223v2.67h-2.67Zm0,0" transform="translate(-209.405 -149.575)"/><path d="M376.585,161.59h2.67a1.335,1.335,0,0,0,1.335-1.335v-2.67a1.335,1.335,0,0,0-1.335-1.335h-2.67a1.335,1.335,0,0,0-1.335,1.335v2.67A1.335,1.335,0,0,0,376.585,161.59Zm0-4h2.67v2.67h-2.67Zm0,0" transform="translate(-358.981 -149.575)"/><path d="M64.085,317.84h2.67A1.335,1.335,0,0,0,68.09,316.5v-2.67a1.335,1.335,0,0,0-1.335-1.335h-2.67a1.335,1.335,0,0,0-1.335,1.335v2.67A1.335,1.335,0,0,0,64.085,317.84Zm0-4h2.67v2.67h-2.67Zm0,0" transform="translate(-59.83 -299.15)"/><path d="M64.085,474.09h2.67a1.335,1.335,0,0,0,1.335-1.335v-2.67a1.335,1.335,0,0,0-1.335-1.335h-2.67a1.335,1.335,0,0,0-1.335,1.335v2.67A1.335,1.335,0,0,0,64.085,474.09Zm0-4h2.67v2.67h-2.67Zm0,0" transform="translate(-59.83 -448.726)"/><path d="M220.335,317.84H223a1.335,1.335,0,0,0,1.335-1.335v-2.67A1.335,1.335,0,0,0,223,312.5h-2.67A1.335,1.335,0,0,0,219,313.835v2.67A1.335,1.335,0,0,0,220.335,317.84Zm0-4H223v2.67h-2.67Zm0,0" transform="translate(-209.405 -299.15)"/><path d="M376.585,317.84h2.67a1.335,1.335,0,0,0,1.335-1.335v-2.67a1.335,1.335,0,0,0-1.335-1.335h-2.67a1.335,1.335,0,0,0-1.335,1.335v2.67A1.335,1.335,0,0,0,376.585,317.84Zm0-4h2.67v2.67h-2.67Zm0,0" transform="translate(-358.981 -299.15)"/><path d="M220.335,474.09H223a1.335,1.335,0,0,0,1.335-1.335v-2.67A1.335,1.335,0,0,0,223,468.75h-2.67A1.335,1.335,0,0,0,219,470.085v2.67A1.335,1.335,0,0,0,220.335,474.09Zm0-4H223v2.67h-2.67Zm0,0" transform="translate(-209.405 -448.726)"/><path d="M64.085,630.34h2.67A1.335,1.335,0,0,0,68.09,629v-2.67A1.335,1.335,0,0,0,66.755,625h-2.67a1.335,1.335,0,0,0-1.335,1.335V629A1.335,1.335,0,0,0,64.085,630.34Zm0-4h2.67V629h-2.67Zm0,0" transform="translate(-59.83 -598.301)"/><path d="M220.335,630.34H223A1.335,1.335,0,0,0,224.34,629v-2.67A1.335,1.335,0,0,0,223,625h-2.67A1.335,1.335,0,0,0,219,626.335V629A1.335,1.335,0,0,0,220.335,630.34Zm0-4H223V629h-2.67Zm0,0" transform="translate(-209.405 -598.301)"/><path d="M265.875,843.75h1.335v1.335h-1.335Zm0,0" transform="translate(-254.278 -807.706)"/></g></svg>