<svg xmlns="http://www.w3.org/2000/svg" width="39.856" height="40.541" viewBox="0 0 39.856 40.541"><g transform="translate(-0.507)"><path d="M14.368,27.687A7.65,7.65,0,0,0,8.606,25a7.648,7.648,0,0,0-5.762,2.687,9.89,9.89,0,0,0,0,12.77l5.762,6.509,5.762-6.509A9.889,9.889,0,0,0,14.368,27.687ZM13.356,39.561,8.606,44.927l-4.75-5.366a8.5,8.5,0,0,1,0-10.978,6.316,6.316,0,0,1,4.749-2.232,6.315,6.315,0,0,1,4.749,2.232A8.5,8.5,0,0,1,13.356,39.561Z" transform="translate(0 -8.108)"/><path d="M45.8,16.559l4.368-4.923a7.425,7.425,0,0,0,0-9.605,5.713,5.713,0,0,0-8.736,0,7.425,7.425,0,0,0,0,9.605ZM42.447,2.928a4.363,4.363,0,0,1,6.714,0,6.038,6.038,0,0,1,0,7.811L45.8,14.523l-3.357-3.784A6.038,6.038,0,0,1,42.447,2.928Z" transform="translate(-12.702)"/><path d="M51.932,54.509a.675.675,0,0,0-.807.511,2.344,2.344,0,0,1-.448.941.676.676,0,1,0,1.062.835,3.723,3.723,0,0,0,.7-1.478A.676.676,0,0,0,51.932,54.509Z" transform="translate(-16.224 -17.673)"/><path d="M31.149,30.9a2.377,2.377,0,0,1-.846-.155.676.676,0,1,0-.482,1.263,3.731,3.731,0,0,0,1.326.244h.241a.676.676,0,0,0,0-1.351Z" transform="translate(-9.366 -9.958)"/><path d="M29.3,23.817a.676.676,0,0,0,.357-.1,2.332,2.332,0,0,1,.982-.34.676.676,0,0,0-.148-1.344,3.664,3.664,0,0,0-1.55.536.676.676,0,0,0,.359,1.249Z" transform="translate(-9.117 -7.144)"/><path d="M17.091,58H15.74a.676.676,0,0,0,0,1.351h1.351a.676.676,0,0,0,0-1.351Z" transform="translate(-4.721 -18.81)"/><path d="M35.6,40c-.058,0-.116,0-.173,0a.676.676,0,0,0,.027,1.351h.028l1.324,0a.676.676,0,0,0,0-1.351Z" transform="translate(-11.115 -12.973)"/><path d="M35.169,23.351H36.52a.676.676,0,1,0,0-1.351H35.169a.676.676,0,1,0,0,1.351Z" transform="translate(-11.022 -7.135)"/><path d="M47.454,40a.676.676,0,1,0,0,1.351h1.351a.676.676,0,0,0,0-1.351Z" transform="translate(-15.007 -12.973)"/><path d="M50.054,31.676A.675.675,0,0,0,49.378,31H48.027a.676.676,0,1,0,0,1.351h1.351A.675.675,0,0,0,50.054,31.676Z" transform="translate(-15.192 -10.054)"/><path d="M41.454,41.351h1.351a.676.676,0,1,0,0-1.351H41.454a.676.676,0,1,0,0,1.351Z" transform="translate(-13.061 -12.973)"/><path d="M42.52,23.351a.676.676,0,1,0,0-1.351H41.169a.676.676,0,1,0,0,1.351Z" transform="translate(-12.968 -7.135)"/><path d="M36.027,31a.676.676,0,0,0,0,1.351h1.351a.676.676,0,0,0,0-1.351Z" transform="translate(-11.301 -10.054)"/><path d="M44.054,31.676A.675.675,0,0,0,43.378,31H42.027a.676.676,0,1,0,0,1.351h1.351A.676.676,0,0,0,44.054,31.676Z" transform="translate(-13.246 -10.054)"/><path d="M58.74,35.359a.676.676,0,0,0-1.334.214,2.226,2.226,0,0,1,.028.373,2.366,2.366,0,0,1-.1.668.676.676,0,0,0,.459.839.686.686,0,0,0,.19.027.676.676,0,0,0,.649-.486,3.722,3.722,0,0,0,.15-1.043A3.593,3.593,0,0,0,58.74,35.359Z" transform="translate(-18.422 -11.283)"/><path d="M41.091,58H39.74a.676.676,0,0,0,0,1.351h1.351a.676.676,0,0,0,0-1.351Z" transform="translate(-12.505 -18.81)"/><path d="M35.091,58H33.74a.676.676,0,0,0,0,1.351h1.351a.676.676,0,0,0,0-1.351Z" transform="translate(-10.559 -18.81)"/><path d="M45.768,49.676A.675.675,0,0,0,45.092,49H43.741a.676.676,0,0,0,0,1.351h1.351A.675.675,0,0,0,45.768,49.676Z" transform="translate(-13.802 -15.892)"/><path d="M39.768,49.676A.675.675,0,0,0,39.092,49H37.741a.676.676,0,1,0,0,1.351h1.351A.675.675,0,0,0,39.768,49.676Z" transform="translate(-11.856 -15.892)"/><path d="M47.043,58h-1.3a.676.676,0,0,0,0,1.351H47.07l.02-.676v.676a.655.655,0,0,0,.652-.676A.7.7,0,0,0,47.043,58Z" transform="translate(-14.45 -18.81)"/><path d="M50.707,51.665a.676.676,0,0,0,.53-1.093,3.746,3.746,0,0,0-1.27-1.032.676.676,0,0,0-.6,1.21,2.37,2.37,0,0,1,.809.658A.677.677,0,0,0,50.707,51.665Z" transform="translate(-15.724 -16.043)"/><path d="M54.512,39.7a2.346,2.346,0,0,1-.914.183h-.145a.676.676,0,1,0,0,1.351H53.6a3.69,3.69,0,0,0,1.436-.289.676.676,0,0,0-.522-1.246Z" transform="translate(-16.952 -12.859)"/><path d="M27.531,28.582a.677.677,0,0,0,.431-.853,2.361,2.361,0,0,1-.118-.735,2.649,2.649,0,0,1,.019-.3.676.676,0,1,0-1.341-.169,3.934,3.934,0,0,0-.03.469,3.719,3.719,0,0,0,.184,1.161.677.677,0,0,0,.642.465A.656.656,0,0,0,27.531,28.582Z" transform="translate(-8.428 -8.41)"/><path d="M23.091,58H21.74a.676.676,0,0,0,0,1.351h1.351a.676.676,0,1,0,0-1.351Z" transform="translate(-6.667 -18.81)"/><path d="M33.286,49.556a.676.676,0,0,0,.282-1.29,2.39,2.39,0,0,1-.83-.632.676.676,0,1,0-1.034.87,3.742,3.742,0,0,0,1.3.991A.68.68,0,0,0,33.286,49.556Z" transform="translate(-10.066 -15.37)"/><path d="M55.645,31.5a3.674,3.674,0,0,0-1.566-.488.676.676,0,0,0-.105,1.347,2.326,2.326,0,0,1,.993.309.676.676,0,1,0,.678-1.169Z" transform="translate(-17.138 -10.058)"/><path d="M29.091,58H27.74a.676.676,0,0,0,0,1.351h1.351a.676.676,0,0,0,0-1.351Z" transform="translate(-8.613 -18.81)"/><path d="M31.912,43.864a2.347,2.347,0,0,1,.418-.955.676.676,0,1,0-1.089-.8,3.7,3.7,0,0,0-.657,1.5.676.676,0,0,0,.536.791.675.675,0,0,0,.791-.537Z" transform="translate(-9.751 -13.568)"/><path d="M47.209,11.432a3.716,3.716,0,1,0-3.716-3.716A3.721,3.721,0,0,0,47.209,11.432Zm0-6.081a2.365,2.365,0,1,1-2.365,2.365A2.367,2.367,0,0,1,47.209,5.351Z" transform="translate(-13.941 -1.297)"/><path d="M10.547,31A4.054,4.054,0,1,0,14.6,35.054,4.058,4.058,0,0,0,10.547,31Zm0,6.757a2.7,2.7,0,1,1,2.7-2.7A2.705,2.705,0,0,1,10.547,37.757Z" transform="translate(-1.941 -10.054)"/></g></svg>